<svg width="30" height="27" viewBox="0 0 30 27" fill="none" xmlns="http://www.w3.org/2000/svg">
<path d="M2.22333 21.6246H12.413C13.2923 21.6246 14.005 20.9119 14.005 20.0331C14.005 19.1538 13.2921 18.4406 12.413 18.4406H6.06632L12.0219 12.4854C13.3005 11.2067 14.005 9.50666 14.005 7.69812C14.005 5.8898 13.3005 4.18978 12.0219 2.91113C10.7434 1.63225 9.04317 0.928223 7.23486 0.928223C5.42631 0.928223 3.72629 1.63248 2.44787 2.91113C1.82603 3.53252 1.82603 4.54077 2.44787 5.16262C3.06971 5.78401 4.07751 5.78402 4.69936 5.16217C5.37637 4.48493 6.27723 4.11215 7.23486 4.11215C8.19271 4.11215 9.09335 4.48492 9.77059 5.16262C10.4481 5.8394 10.8209 6.74004 10.8209 7.69812C10.8209 8.65597 10.4481 9.55663 9.77059 10.2339L1.09724 18.9074C0.641813 19.3624 0.505821 20.0474 0.751925 20.6424C0.99871 21.237 1.57924 21.6246 2.22333 21.6246Z" fill="#111111"/>
<path d="M27.7248 18.4413H26.372V15.2436C26.372 14.3647 25.6593 13.6516 24.78 13.6516C23.9007 13.6516 23.1883 14.3647 23.1883 15.2436V18.4413H19.3759L26.2323 3.17268C26.5924 2.3708 26.2341 1.42837 25.432 1.0683C24.6299 0.708223 23.6877 1.06627 23.3277 1.86815L15.4635 19.3812C15.2423 19.8737 15.2857 20.4449 15.579 20.8985C15.8726 21.3517 16.3755 21.625 16.9156 21.625H23.188V24.8232C23.188 25.7021 23.9005 26.4154 24.7798 26.4154C25.6593 26.4154 26.3717 25.7021 26.3717 24.8232V21.625H27.7246C28.6039 21.625 29.3168 20.9124 29.3168 20.0335C29.317 19.1542 28.6039 18.4413 27.7248 18.4413Z" fill="#333333"/>
</svg>
