<svg width="27" height="22" viewBox="0 0 27 22" fill="none" xmlns="http://www.w3.org/2000/svg">
<path d="M3.038 8.36206H2.22852C0.997617 8.36206 0 9.36001 0 10.5906C0 11.8212 0.997617 12.8191 2.22852 12.8191H3.038C4.26828 12.8191 5.26657 11.8212 5.26657 10.5906C5.26657 9.36001 4.26859 8.36206 3.038 8.36206Z" fill="#111111"/>
<path d="M21.5707 12.8191C22.8013 12.8191 23.7995 11.8212 23.7995 10.5906C23.7995 9.36001 22.8013 8.36206 21.5707 8.36206H9.20313C7.97286 8.36206 6.97461 9.36001 6.97461 10.5906C6.97461 11.8212 7.97286 12.8191 9.20313 12.8191H21.5707Z" fill="#111111"/>
<path d="M10.5781 4.54655H11.3784C12.6096 4.54655 13.6069 3.5486 13.6069 2.31833C13.6069 1.08711 12.6096 0.0894775 11.3784 0.0894775H10.5781C9.34723 0.0894775 8.34961 1.08742 8.34961 2.31833C8.34961 3.5486 9.34723 4.54655 10.5781 4.54655Z" fill="#111111"/>
<path d="M24.0084 0.0894775H17.5443C16.3131 0.0894775 15.3154 1.08742 15.3154 2.31833C15.3154 3.54892 16.3131 4.54655 17.5443 4.54655H24.0084C25.2393 4.54655 26.2369 3.5486 26.2369 2.31833C26.2369 1.08711 25.2393 0.0894775 24.0084 0.0894775Z" fill="#111111"/>
<path d="M11.3883 16.6357H10.5781C9.34723 16.6357 8.34961 17.6337 8.34961 18.8646C8.34961 20.0952 9.34723 21.0928 10.5781 21.0928H11.3883C12.6192 21.0928 13.6168 20.0949 13.6168 18.8646C13.6168 17.6337 12.6192 16.6357 11.3883 16.6357Z" fill="#111111"/>
<path d="M24.0083 16.6357H17.5538C16.3229 16.6357 15.3252 17.6337 15.3252 18.8646C15.3252 20.0952 16.3229 21.0928 17.5538 21.0928H24.0083C25.2392 21.0928 26.2368 20.0949 26.2368 18.8646C26.2368 17.6337 25.2392 16.6357 24.0083 16.6357Z" fill="#111111"/>
</svg>
